<svg xmlns="http://www.w3.org/2000/svg"  data-encore-id="icon"  role="img" aria-hidden="true" class="e-9960-icon e-9960-baseline e-9960-icon--auto-mirror" viewBox="0 0 16 16" style="--encore-icon-height: var(--encore-graphic-size-decorative-smaller); --encore-icon-width: var(--encore-graphic-size-decorative-smaller);"><path d="M10.97 5.47a.75.75 0 1 1 1.06 1.06L10.56 8l1.47 1.47a.75.75 0 1 1-1.06 1.06l-2-2a.75.75 0 0 1 0-1.06z"></path><path d="M1 0a1 1 0 0 0-1 1v14a1 1 0 0 0 1 1h14a1 1 0 0 0 1-1V1a1 1 0 0 0-1-1zm.5 1.5H5v13H1.5zm13 13h-8v-13h8z"></path></svg>